<?xml version="1.0" encoding="utf-8"?>
<!-- Generator: Adobe Illustrator 26.2.1, SVG Export Plug-In . SVG Version: 6.00 Build 0)  -->
<svg version="1.1" id="Layer_1" xmlns="http://www.w3.org/2000/svg" xmlns:xlink="http://www.w3.org/1999/xlink" x="0px" y="0px"
	 viewBox="0 0 202 52" style="enable-background:new 0 0 202 52;" xml:space="preserve">
<style type="text/css">
	.st0{fill:#F26223;}
	.st1{fill:#FFFFFF;}
	.st2{fill:#61697D;}
</style>
<g>
	<polygon class="st0" points="89.72,10.07 89.72,14.29 95.6,14.29 97.79,10.07 	"/>
	<path class="st2" d="M13.81,32.58c0.45,0.73,1.03,1.31,1.76,1.74c0.73,0.43,1.55,0.74,2.46,0.93c0.91,0.19,1.86,0.28,2.83,0.28
		c0.75,0,1.53-0.06,2.35-0.17c0.82-0.11,1.57-0.32,2.27-0.62c0.69-0.3,1.26-0.74,1.71-1.32c0.45-0.58,0.67-1.32,0.67-2.22
		c0-1.23-0.47-2.17-1.4-2.81c-0.93-0.64-2.1-1.15-3.5-1.54c-1.4-0.39-2.92-0.75-4.56-1.07c-1.64-0.32-3.17-0.77-4.56-1.35
		c-1.4-0.58-2.57-1.39-3.5-2.44c-0.94-1.05-1.4-2.51-1.4-4.38c0-1.46,0.33-2.71,0.98-3.76c0.65-1.05,1.49-1.9,2.52-2.55
		c1.03-0.65,2.19-1.14,3.48-1.46c1.29-0.32,2.57-0.48,3.84-0.48c1.64,0,3.16,0.14,4.54,0.42c1.38,0.28,2.61,0.77,3.67,1.46
		c1.07,0.69,1.92,1.63,2.55,2.8c0.64,1.18,1.01,2.65,1.12,4.4h-4.78c-0.08-0.93-0.32-1.71-0.73-2.32c-0.41-0.62-0.93-1.11-1.57-1.48
		c-0.64-0.37-1.33-0.64-2.1-0.81c-0.77-0.17-1.54-0.25-2.32-0.25c-0.71,0-1.43,0.06-2.16,0.17c-0.73,0.11-1.39,0.31-1.99,0.59
		c-0.6,0.28-1.08,0.66-1.46,1.12c-0.37,0.47-0.56,1.08-0.56,1.83c0,0.83,0.29,1.51,0.87,2.05c0.58,0.54,1.32,0.99,2.21,1.35
		c0.9,0.35,1.9,0.66,3.02,0.9c1.12,0.24,2.24,0.5,3.36,0.76c1.2,0.26,2.36,0.58,3.5,0.96c1.14,0.37,2.15,0.87,3.03,1.49
		c0.88,0.62,1.59,1.4,2.13,2.33c0.54,0.94,0.81,2.1,0.81,3.48c0,1.76-0.36,3.22-1.09,4.38c-0.73,1.16-1.68,2.1-2.86,2.81
		c-1.18,0.71-2.5,1.21-3.98,1.49c-1.48,0.28-2.94,0.42-4.4,0.42c-1.61,0-3.14-0.17-4.59-0.51c-1.46-0.34-2.74-0.89-3.87-1.66
		c-1.12-0.77-2.01-1.78-2.69-3.04c-0.67-1.26-1.04-2.79-1.12-4.59h4.78C13.12,30.96,13.36,31.85,13.81,32.58"/>
	<path class="st2" d="M43.81,46.48c-0.54,0.97-1.14,1.77-1.79,2.38c-0.65,0.62-1.37,1.06-2.16,1.35c-0.79,0.28-1.72,0.42-2.8,0.42
		c-0.56,0-1.12-0.04-1.68-0.11c-0.56-0.08-1.1-0.21-1.63-0.39v-4.38c0.45,0.15,0.91,0.3,1.37,0.45c0.47,0.15,0.94,0.22,1.43,0.22
		c0.97,0,1.76-0.22,2.35-0.67c0.6-0.45,1.12-1.1,1.57-1.96l1.96-4.88L30.94,10.07h5.38l8.46,23.73h0.11l8.13-23.73h5.04L45.46,42.89
		C44.9,44.31,44.35,45.5,43.81,46.48"/>
	<path class="st2" d="M62.55,32.58c0.45,0.73,1.03,1.31,1.76,1.74c0.73,0.43,1.55,0.74,2.46,0.93c0.91,0.19,1.86,0.28,2.83,0.28
		c0.75,0,1.53-0.06,2.35-0.17c0.82-0.11,1.57-0.32,2.27-0.62c0.69-0.3,1.26-0.74,1.71-1.32c0.45-0.58,0.67-1.32,0.67-2.22
		c0-1.23-0.47-2.17-1.4-2.81c-0.93-0.64-2.1-1.15-3.5-1.54c-1.4-0.39-2.92-0.75-4.56-1.07c-1.64-0.32-3.17-0.77-4.56-1.35
		c-1.4-0.58-2.57-1.39-3.5-2.44c-0.94-1.05-1.4-2.51-1.4-4.38c0-1.46,0.33-2.71,0.98-3.76c0.65-1.05,1.49-1.9,2.52-2.55
		c1.03-0.65,2.19-1.14,3.48-1.46c1.29-0.32,2.57-0.48,3.84-0.48c1.64,0,3.16,0.14,4.54,0.42c1.38,0.28,2.61,0.77,3.67,1.46
		c1.07,0.69,1.92,1.63,2.55,2.8c0.64,1.18,1.01,2.65,1.12,4.4h-4.78c-0.08-0.93-0.32-1.71-0.73-2.32c-0.41-0.62-0.93-1.11-1.57-1.48
		c-0.64-0.37-1.33-0.64-2.1-0.81c-0.77-0.17-1.54-0.25-2.33-0.25c-0.71,0-1.43,0.06-2.16,0.17c-0.73,0.11-1.39,0.31-1.99,0.59
		c-0.6,0.28-1.08,0.66-1.46,1.12c-0.37,0.47-0.56,1.08-0.56,1.83c0,0.83,0.29,1.51,0.87,2.05c0.58,0.54,1.32,0.99,2.21,1.35
		c0.89,0.35,1.9,0.66,3.02,0.9c1.12,0.24,2.24,0.5,3.36,0.76c1.2,0.26,2.36,0.58,3.5,0.96c1.14,0.37,2.15,0.87,3.03,1.49
		c0.88,0.62,1.59,1.4,2.13,2.33c0.54,0.94,0.81,2.1,0.81,3.48c0,1.76-0.36,3.22-1.09,4.38c-0.73,1.16-1.68,2.1-2.86,2.81
		c-1.18,0.71-2.5,1.21-3.98,1.49c-1.48,0.28-2.94,0.42-4.4,0.42c-1.61,0-3.14-0.17-4.59-0.51c-1.46-0.34-2.74-0.89-3.86-1.66
		c-1.12-0.77-2.02-1.78-2.69-3.04c-0.67-1.26-1.04-2.79-1.12-4.59h4.78C61.85,30.96,62.1,31.85,62.55,32.58"/>
	<path class="st2" d="M89.86,10.06v4.21v18.01c0,0.56,0.05,1.01,0.14,1.35c0.09,0.34,0.27,0.6,0.53,0.79
		c0.26,0.19,0.62,0.31,1.09,0.37c0.46,0.06,1.07,0.08,1.81,0.08h3.75l-2.19,4.21h-3.02c-1.23,0-2.28-0.08-3.16-0.25
		c-0.88-0.17-1.58-0.48-2.13-0.93c-0.54-0.45-0.94-1.08-1.2-1.91c-0.26-0.82-0.39-1.91-0.39-3.26l0-18.46h-2.74v-4.21h2.74V3.57
		l4.78-2.2V10.06z"/>
	<path class="st2" d="M117.88,18.58c-0.43-1.01-1.01-1.88-1.74-2.62c-0.73-0.73-1.59-1.31-2.58-1.74c-0.99-0.43-2.08-0.65-3.28-0.65
		c-1.23,0-2.34,0.22-3.33,0.65c-0.99,0.43-1.84,1.02-2.55,1.77c-0.71,0.75-1.27,1.62-1.68,2.61c-0.41,0.99-0.65,2.05-0.73,3.18
		h16.64C118.57,20.66,118.31,19.59,117.88,18.58 M119.02,37.23c-2.17,1.65-4.89,2.47-8.17,2.47c-2.31,0-4.32-0.37-6.02-1.12
		c-1.7-0.75-3.13-1.8-4.28-3.15c-1.16-1.35-2.02-2.96-2.6-4.83c-0.58-1.87-0.91-3.91-0.98-6.12c0-2.21,0.34-4.23,1.01-6.07
		c0.67-1.83,1.61-3.43,2.83-4.77c1.21-1.35,2.65-2.4,4.31-3.15c1.66-0.75,3.48-1.12,5.46-1.12c2.58,0,4.71,0.53,6.41,1.6
		c1.7,1.07,3.06,2.43,4.09,4.07c1.03,1.65,1.74,3.45,2.13,5.4c0.39,1.95,0.55,3.8,0.48,5.56H102c-0.04,1.27,0.11,2.48,0.45,3.62
		c0.33,1.14,0.88,2.15,1.62,3.03c0.75,0.88,1.7,1.58,2.85,2.1c1.16,0.52,2.52,0.78,4.09,0.78c2.01,0,3.67-0.47,4.95-1.4
		c1.29-0.93,2.14-2.36,2.55-4.26h4.7C122.58,33.12,121.18,35.58,119.02,37.23"/>
	<path class="st2" d="M130.78,8.28v6.03h0.1c2.17-3.3,5.3-4.95,9.38-4.95c1.8,0,3.43,0.37,4.89,1.12c1.46,0.75,2.49,2.02,3.09,3.82
		c0.97-1.57,2.25-2.79,3.85-3.65c1.59-0.86,3.34-1.29,5.25-1.29c1.46,0,2.78,0.16,3.96,0.48c1.18,0.32,2.19,0.81,3.03,1.49
		c0.84,0.67,1.5,1.54,1.96,2.61c0.47,1.07,0.7,2.35,0.7,3.85v21.29h-4.78V20.04c0-0.9-0.07-1.74-0.22-2.53
		c-0.15-0.79-0.43-1.47-0.84-2.05c-0.41-0.58-0.98-1.04-1.71-1.38c-0.73-0.34-1.67-0.51-2.83-0.51c-2.36,0-4.21,0.67-5.56,2.02
		c-1.35,1.35-2.02,3.15-2.02,5.39v18.09h-4.78V20.04c0-0.94-0.08-1.8-0.25-2.58c-0.17-0.79-0.46-1.47-0.87-2.05
		c-0.41-0.58-0.96-1.03-1.66-1.35c-0.69-0.32-1.58-0.48-2.67-0.48c-1.39,0-2.57,0.28-3.57,0.84c-0.99,0.56-1.8,1.24-2.41,2.02
		c-0.62,0.79-1.07,1.6-1.35,2.44c-0.28,0.84-0.42,1.54-0.42,2.11v18.09h-4.78V10.48L130.78,8.28z"/>
	<path class="st2" d="M174.62,32.58c0.45,0.73,1.03,1.31,1.76,1.74c0.73,0.43,1.55,0.74,2.46,0.93c0.91,0.19,1.86,0.28,2.83,0.28
		c0.75,0,1.53-0.06,2.35-0.17c0.82-0.11,1.57-0.32,2.27-0.62c0.69-0.3,1.26-0.74,1.71-1.32c0.45-0.58,0.67-1.32,0.67-2.22
		c0-1.23-0.47-2.17-1.4-2.81c-0.93-0.64-2.1-1.15-3.5-1.54c-1.4-0.39-2.92-0.75-4.56-1.07c-1.64-0.32-3.17-0.77-4.56-1.35
		c-1.4-0.58-2.57-1.39-3.5-2.44c-0.94-1.05-1.4-2.51-1.4-4.38c0-1.46,0.33-2.71,0.98-3.76c0.65-1.05,1.49-1.9,2.52-2.55
		c1.03-0.65,2.19-1.14,3.48-1.46c1.29-0.32,2.57-0.48,3.84-0.48c1.64,0,3.16,0.14,4.54,0.42c1.38,0.28,2.61,0.77,3.67,1.46
		c1.07,0.69,1.92,1.63,2.55,2.8c0.64,1.18,1.01,2.65,1.12,4.4h-4.78c-0.08-0.93-0.32-1.71-0.73-2.32c-0.41-0.62-0.93-1.11-1.57-1.48
		c-0.64-0.37-1.33-0.64-2.1-0.81c-0.77-0.17-1.54-0.25-2.33-0.25c-0.71,0-1.43,0.06-2.16,0.17c-0.73,0.11-1.39,0.31-1.99,0.59
		c-0.6,0.28-1.08,0.66-1.46,1.12c-0.37,0.47-0.56,1.08-0.56,1.83c0,0.83,0.29,1.51,0.87,2.05c0.58,0.54,1.32,0.99,2.21,1.35
		c0.89,0.35,1.9,0.66,3.02,0.9c1.12,0.24,2.24,0.5,3.36,0.76c1.2,0.26,2.36,0.58,3.5,0.96c1.14,0.37,2.15,0.87,3.03,1.49
		c0.88,0.62,1.59,1.4,2.13,2.33c0.54,0.94,0.81,2.1,0.81,3.48c0,1.76-0.36,3.22-1.09,4.38c-0.73,1.16-1.68,2.1-2.86,2.81
		c-1.18,0.71-2.5,1.21-3.98,1.49c-1.48,0.28-2.94,0.42-4.4,0.42c-1.61,0-3.14-0.17-4.59-0.51c-1.46-0.34-2.74-0.89-3.87-1.66
		c-1.12-0.77-2.02-1.78-2.69-3.04c-0.67-1.26-1.04-2.79-1.12-4.59h4.78C173.93,30.96,174.17,31.85,174.62,32.58"/>
</g>
</svg>
