<svg xmlns="http://www.w3.org/2000/svg" version="1.1" xmlns:xlink="http://www.w3.org/1999/xlink" xmlns:svgjs="http://svgjs.dev/svgjs" width="2000" height="1605" viewBox="0 0 2000 1605"><g transform="matrix(1,0,0,1,-2.2436497630259282,-2.587514586783982)"><svg viewBox="0 0 309 248" data-background-color="#ffffff" preserveAspectRatio="xMidYMid meet" height="1605" width="2000" xmlns="http://www.w3.org/2000/svg" xmlns:xlink="http://www.w3.org/1999/xlink"><g id="tight-bounds" transform="matrix(1,0,0,1,0.3467241075439915,0.40002634420793015)"><svg viewBox="0 0 308.30662463133854 247.2" height="247.2" width="308.30662463133854"><g><svg viewBox="0 0 308.30662463133854 247.2" height="247.2" width="308.30662463133854"><g><svg viewBox="0 0 308.30662463133854 247.2" height="247.2" width="308.30662463133854"><g id="textblocktransform"><svg viewBox="0 0 308.30662463133854 247.2" height="247.2" width="308.30662463133854" id="textblock"><g><svg viewBox="0 0 308.30662463133854 247.2" height="247.2" width="308.30662463133854"><path d="M307.585 53.02C306.135 27.36 302.005 20.227 302.005 20.227 289.322-6.202 273.495-0.506 259.276 3.292 234.172 3.446 209.169 9.091 184.124 12.119 131.553 12.581 78.534 4.986 26.224 23.717 21.311 29.464-5.098 24.846 0.874 56.304 2.439 69.39 8.15 83.913 7.976 95.922 8.759 98.026 9.846 93.202 10.31 96.23 11.933 104.39 14.585 100.541 16.76 105.365 13.73 118.246 15.904 128.971 17.977 140.21 14.325 143.135 9.643 141.749 7.541 151.449 7.324 158.479 6.15 157.145 4.86 156.837 3.918 156.632 2.019 157.402 2.338 159.608 3.425 167.152-1.242 171.514 1.686 178.904-0.329 186.91 3.077 193.838 2.613 202.511 2.555 204.255 2.874 205.744 3.381 206.154 5.628 208.361 2.352 212.672 2.7 217.342 25.746 249.262 50.748 227.195 74.359 241.872 80.49 231.608 75.881 245.516 78.331 243.36 80.244 240.846 81.635 251.263 83.795 245.362 84.128 243.668 83.621 239.665 84.81 240.435 85.433 240.846 85.984 240.743 86.071 238.382 86.201 234.841 85.056 237.048 84.752 235.201 88.042 225.861 87.23 248.081 90.317 247.158 90.172 244.438 89.274 240.538 91.115 241.051 92.941 237.151 92.999 233.918 94.622 242.693 94.68 244.592 94.97 245.926 95.434 246.85 100.507 237.305 105.551 250.237 110.87 245.926 114.131 241.205 117.262 248.492 120.567 246.696 121.726 245.259 122.9 242.693 124.016 247.004 137.684 247.928 152.251 244.079 165.209 247.158 199.835 241.41 236.839 249.518 273.35 241.923 281.959 238.998 290.902 234.841 299.294 231.506 299.294 231.506 306.092 222.371 306.092 181.316S307.541 145.393 307.759 112.703C307.976 80.013 308.991 78.679 307.541 53.02Z" opacity="1" fill="#ca3433" data-fill-palette-color="tertiary"></path><g transform="matrix(1,0,0,1,55.76832,26.230666666666668)"><svg width="196.76998463133853" viewBox="0.66 -35.18 35.865625 35.5" height="194.73866666666666" data-palette-color="#ffffff"><path d="M15.31-3.13L15.31 0 0.66 0 0.66-2.88 12.84-31.74 1.44-31.74 1.44-34.86 16.5-34.86 16.5-31.96 4.15-3.13 15.31-3.13ZM27.83 0.32L27.83 0.32Q23.24 0.32 21.19-1.14 19.14-2.59 19.02-5.93L19.02-5.93Q18.89-7.79 18.93-9.3 18.97-10.82 19.09-12.7L19.09-12.7 22.39-12.7Q22.24-10.82 22.25-8.96 22.26-7.1 22.39-5.37L22.39-5.37Q22.51-3.96 23.73-3.28 24.95-2.61 27.76-2.61L27.76-2.61Q30.52-2.61 31.67-3.28 32.83-3.96 32.98-5.37L32.98-5.37Q33.1-7.1 33.09-8.39 33.08-9.67 32.98-11.57L32.98-11.57Q32.88-13.09 32.19-14.11 31.49-15.14 29.1-15.45L29.1-15.45 25.61-16.09Q22.85-16.55 21.47-17.44 20.09-18.33 19.59-19.74 19.09-21.14 18.99-23.17L18.99-23.17Q18.92-24.51 18.94-26.04 18.97-27.56 19.04-29L19.04-29Q19.09-32.32 21.08-33.75 23.07-35.18 27.76-35.18L27.76-35.18Q32.08-35.18 34.04-33.74 36.01-32.3 36.13-28.98L36.13-28.98Q36.2-27.83 36.18-26.14 36.15-24.44 36.08-22.63L36.08-22.63 32.76-22.63Q32.93-24.37 32.93-26.1 32.93-27.83 32.81-29.54L32.81-29.54Q32.71-30.93 31.53-31.59 30.34-32.25 27.68-32.25L27.68-32.25Q24.92-32.25 23.74-31.59 22.56-30.93 22.43-29.54L22.43-29.54Q22.31-27.98 22.32-26.37 22.34-24.76 22.43-23.17L22.43-23.17Q22.53-21.39 23.2-20.45 23.87-19.51 26.39-19.21L26.39-19.21 29.81-18.68Q32.57-18.26 33.96-17.33 35.35-16.41 35.85-14.98 36.35-13.55 36.42-11.57L36.42-11.57Q36.55-9.77 36.52-8.64 36.5-7.52 36.37-5.93L36.37-5.93Q36.2-2.59 34.21-1.14 32.22 0.32 27.83 0.32Z" opacity="1" transform="matrix(1,0,0,1,0,0)" fill="#ffffff" class="wordmark-text-0" data-fill-palette-color="quaternary" id="text-0"></path></svg></g></svg></g></svg></g></svg></g><g></g></svg></g><defs></defs></svg><rect width="308.30662463133854" height="247.2" fill="none" stroke="none" visibility="hidden"></rect></g></svg></g></svg>